<svg width="300" height="300" viewBox="0 0 300 300" fill="none" xmlns="http://www.w3.org/2000/svg">
<g clip-path="url(#clip0_4_44)">
<path d="M150 300C129.754 300 110.111 296.031 91.6108 288.21C73.7459 280.653 57.7118 269.837 43.9321 256.068C30.163 242.299 19.3466 226.254 11.79 208.389C3.96881 189.889 0 170.246 0 150C0 129.754 3.96881 110.111 11.79 91.6108C19.3466 73.7459 30.163 57.7118 43.9321 43.9321C57.7118 30.163 73.7459 19.3466 91.6108 11.79C110.111 3.96881 129.754 0 150 0C170.246 0 189.889 3.96881 208.389 11.79C226.254 19.3466 242.288 30.163 256.068 43.9321C269.837 57.7013 280.653 73.7459 288.21 91.6108C296.031 110.111 300 129.754 300 150C300 170.246 296.031 189.889 288.21 208.389C280.653 226.254 269.837 242.288 256.068 256.068C242.299 269.837 226.254 280.653 208.389 288.21C189.889 296.042 170.246 300 150 300Z" fill="white"/>
<path d="M150.05 292.1C228.502 292.1 292.1 228.502 292.1 150.05C292.1 71.5979 228.502 8 150.05 8C71.5979 8 8 71.5979 8 150.05C8 228.502 71.5979 292.1 150.05 292.1Z" fill="black"/>
<path d="M132.201 93.1858C115.682 89.8255 99.9449 81.7705 87.1599 68.9855L68.977 86.6526C81.8902 99.5694 89.9867 115.507 93.284 132.228L132.209 132.226L132.201 93.1858Z" fill="white"/>
<path d="M132.207 206.254L132.208 167.329L93.1587 167.329C89.7973 183.849 81.7417 199.587 68.9558 212.372L77.7974 221.464L86.639 230.555C99.5582 217.636 115.5 209.535 132.207 206.254Z" fill="white"/>
<path d="M167.309 206.359C183.829 209.72 199.566 217.774 212.351 230.559L230.534 212.892C217.615 199.974 209.516 184.033 206.236 167.326L167.31 167.327L167.309 206.359Z" fill="white"/>
<path d="M132.208 167.329L167.31 167.327L167.311 132.225L132.209 132.226L132.208 167.329Z" fill="white"/>
<path d="M167.312 93.3003L167.311 132.225L206.352 132.215C209.714 115.695 217.769 99.958 230.555 87.1722L221.714 78.081L212.88 68.9996C199.961 81.9188 184.019 90.0189 167.312 93.3003Z" fill="white"/>
</g>
<defs>
<clipPath id="clip0_4_44">
<rect width="300" height="300" fill="white"/>
</clipPath>
</defs>
</svg>
